<svg xmlns="http://www.w3.org/2000/svg" width="1125" height="290" viewBox="0 0 1125 290" role="img" aria-label="Official Tech Stack">
  <defs>
    <filter id="noise" x="0" y="0" width="100%" height="100%">
      <feTurbulence type="fractalNoise" baseFrequency="0.8" numOctaves="3" stitchTiles="stitch"/>
      <feColorMatrix type="matrix" values="1 0 0 0 0, 0 1 0 0 0, 0 0 1 0 0, 0 0 0 0.05 0" />
    </filter>
  </defs>
  <rect x="0" y="0" width="1125" height="290" rx="0" fill="#040404" />
  <g stroke="#0f0f0f" stroke-width="1">
    <line x1="0" y1="0.5" x2="1125" y2="0.5" />
    <line x1="0" y1="20.5" x2="1125" y2="20.5" />
    <line x1="0" y1="40.5" x2="1125" y2="40.5" />
    <line x1="0" y1="60.5" x2="1125" y2="60.5" />
    <line x1="0" y1="80.5" x2="1125" y2="80.5" />
    <line x1="0" y1="100.5" x2="1125" y2="100.5" />
    <line x1="0" y1="120.5" x2="1125" y2="120.5" />
    <line x1="0" y1="140.5" x2="1125" y2="140.5" />
    <line x1="0" y1="160.5" x2="1125" y2="160.5" />
    <line x1="0" y1="180.5" x2="1125" y2="180.5" />
    <line x1="0" y1="200.5" x2="1125" y2="200.5" />
    <line x1="0" y1="220.5" x2="1125" y2="220.5" />
    <line x1="0" y1="240.5" x2="1125" y2="240.5" />
    <line x1="0" y1="260.5" x2="1125" y2="260.5" />
    <line x1="0" y1="280.5" x2="1125" y2="280.5" />
    <line x1="0.5" y1="0" x2="0.5" y2="290" />
    <line x1="20.5" y1="0" x2="20.5" y2="290" />
    <line x1="40.5" y1="0" x2="40.5" y2="290" />
    <line x1="60.5" y1="0" x2="60.5" y2="290" />
    <line x1="80.5" y1="0" x2="80.5" y2="290" />
    <line x1="100.5" y1="0" x2="100.5" y2="290" />
    <line x1="120.5" y1="0" x2="120.5" y2="290" />
    <line x1="140.5" y1="0" x2="140.5" y2="290" />
    <line x1="160.5" y1="0" x2="160.5" y2="290" />
    <line x1="180.5" y1="0" x2="180.5" y2="290" />
    <line x1="200.5" y1="0" x2="200.5" y2="290" />
    <line x1="220.5" y1="0" x2="220.5" y2="290" />
    <line x1="240.5" y1="0" x2="240.5" y2="290" />
    <line x1="260.5" y1="0" x2="260.5" y2="290" />
    <line x1="280.5" y1="0" x2="280.5" y2="290" />
    <line x1="300.5" y1="0" x2="300.5" y2="290" />
    <line x1="320.5" y1="0" x2="320.5" y2="290" />
    <line x1="340.5" y1="0" x2="340.5" y2="290" />
    <line x1="360.5" y1="0" x2="360.5" y2="290" />
    <line x1="380.5" y1="0" x2="380.5" y2="290" />
    <line x1="400.5" y1="0" x2="400.5" y2="290" />
    <line x1="420.5" y1="0" x2="420.5" y2="290" />
    <line x1="440.5" y1="0" x2="440.5" y2="290" />
    <line x1="460.5" y1="0" x2="460.5" y2="290" />
    <line x1="480.5" y1="0" x2="480.5" y2="290" />
    <line x1="500.5" y1="0" x2="500.5" y2="290" />
    <line x1="520.5" y1="0" x2="520.5" y2="290" />
    <line x1="540.5" y1="0" x2="540.5" y2="290" />
    <line x1="560.5" y1="0" x2="560.5" y2="290" />
    <line x1="580.5" y1="0" x2="580.5" y2="290" />
    <line x1="600.5" y1="0" x2="600.5" y2="290" />
    <line x1="620.5" y1="0" x2="620.5" y2="290" />
    <line x1="640.5" y1="0" x2="640.5" y2="290" />
    <line x1="660.5" y1="0" x2="660.5" y2="290" />
    <line x1="680.5" y1="0" x2="680.5" y2="290" />
    <line x1="700.5" y1="0" x2="700.5" y2="290" />
    <line x1="720.5" y1="0" x2="720.5" y2="290" />
    <line x1="740.5" y1="0" x2="740.5" y2="290" />
    <line x1="760.5" y1="0" x2="760.5" y2="290" />
    <line x1="780.5" y1="0" x2="780.5" y2="290" />
    <line x1="800.5" y1="0" x2="800.5" y2="290" />
    <line x1="820.5" y1="0" x2="820.5" y2="290" />
    <line x1="840.5" y1="0" x2="840.5" y2="290" />
    <line x1="860.5" y1="0" x2="860.5" y2="290" />
    <line x1="880.5" y1="0" x2="880.5" y2="290" />
    <line x1="900.5" y1="0" x2="900.5" y2="290" />
    <line x1="920.5" y1="0" x2="920.5" y2="290" />
    <line x1="940.5" y1="0" x2="940.5" y2="290" />
    <line x1="960.5" y1="0" x2="960.5" y2="290" />
    <line x1="980.5" y1="0" x2="980.5" y2="290" />
    <line x1="1000.5" y1="0" x2="1000.5" y2="290" />
    <line x1="1020.5" y1="0" x2="1020.5" y2="290" />
    <line x1="1040.5" y1="0" x2="1040.5" y2="290" />
    <line x1="1060.5" y1="0" x2="1060.5" y2="290" />
    <line x1="1080.5" y1="0" x2="1080.5" y2="290" />
    <line x1="1100.5" y1="0" x2="1100.5" y2="290" />
    <line x1="1120.5" y1="0" x2="1120.5" y2="290" />
  </g>
  <rect x="0" y="0" width="1125" height="290" fill="transparent" filter="url(#noise)" style="pointer-events: none;" />
  <rect x="0.5" y="0.5" width="1124" height="289" fill="none" stroke="#1a1a1a" />
  <text x="28" y="38" font-family="Fira Code, SF Mono, Consolas, Courier New, monospace" font-size="14px" font-weight="bold" fill="#FFB000">--- sruj08@core-skills ---------------------------------------------------------------------------</text>
  <g>
    <rect x="34.5" y="60.5" width="332" height="58" fill="none" stroke="#1a1a1a" stroke-width="1"/>
    <rect x="34" y="60" width="3" height="58" fill="#FFB000" />
    <g transform="translate(52, 77)" fill="#FFB000">
      <svg width="24" height="24" viewBox="0 0 24 24" fill="#FFB000"><path d="M14.25.18l.9.2.73.26.59.3.45.32.34.34.25.34.16.33.1.3.04.26.02.2-.01.13V8.5l-.05.63-.13.55-.21.46-.26.38-.3.31-.33.25-.35.19-.35.14-.33.1-.3.07-.26.04-.21.02H8.77l-.69.05-.59.14-.5.22-.41.27-.33.32-.27.35-.2.36-.15.37-.1.35-.07.32-.04.27-.02.21v3.06H3.17l-.21-.03-.28-.07-.32-.12-.35-.18-.36-.26-.36-.36-.35-.46-.32-.59-.28-.73-.21-.88-.14-1.05-.05-1.23.06-1.22.16-1.04.24-.87.32-.71.36-.57.4-.44.42-.33.42-.24.4-.16.36-.1.32-.05.24-.01h.16l.06.01h8.16v-.83H6.18l-.01-2.75-.02-.37.05-.34.11-.31.17-.28.25-.26.31-.23.38-.2.44-.18.51-.15.58-.12.64-.1.71-.06.77-.04.84-.02 1.27.05zm-6.3 1.98l-.23.33-.08.41.08.41.23.34.33.22.41.09.41-.09.33-.22.23-.34.08-.41-.08-.41-.23-.33-.33-.22-.41-.09-.41.09zm13.09 3.95l.28.06.32.12.35.18.36.27.36.35.35.47.32.59.28.73.21.88.14 1.04.05 1.23-.06 1.23-.16 1.04-.24.86-.32.71-.36.57-.4.45-.42.33-.42.24-.4.16-.36.09-.32.05-.24.02-.16-.01h-8.22v.82h5.84l.01 2.76.02.36-.05.34-.11.31-.17.29-.25.25-.31.24-.38.2-.44.17-.51.15-.58.13-.64.09-.71.07-.77.04-.84.01-1.27-.04-1.07-.14-.9-.2-.73-.25-.59-.3-.45-.33-.34-.34-.25-.34-.16-.33-.1-.3-.04-.25-.02-.2.01-.13v-5.34l.05-.64.13-.54.21-.46.26-.38.3-.32.33-.24.35-.2.35-.14.33-.1.3-.06.26-.04.21-.02.13-.01h5.84l.69-.05.59-.14.5-.21.41-.28.33-.32.27-.35.2-.36.15-.36.1-.35.07-.32.04-.28.02-.21V6.07h2.09l.14.01zm-6.47 14.25l-.23.33-.08.41.08.41.23.33.33.23.41.08.41-.08.33-.23.23-.33.08-.41-.08-.41-.23-.33-.33-.23-.41-.08-.41.08z" /></svg>
    </g>
    <text x="94" y="84" font-family="Fira Code, SF Mono, Consolas, Courier New, monospace" font-size="13px" font-weight="bold" fill="#e0e0e0" text-transform="uppercase" dominant-baseline="middle" xml:space="preserve">Python</text>
    <text x="94" y="100" font-family="Fira Code, SF Mono, Consolas, Courier New, monospace" font-size="11px" fill="#666666" text-transform="uppercase" dominant-baseline="middle" xml:space="preserve">AI / ML &amp; Distributed Systems</text>
  </g>
  <g>
    <rect x="386.5" y="60.5" width="332" height="58" fill="none" stroke="#1a1a1a" stroke-width="1"/>
    <rect x="386" y="60" width="3" height="58" fill="#FFB000" />
    <g transform="translate(404, 77)" fill="#FFB000">
      <svg width="24" height="24" viewBox="0 0 24 24" fill="#FFB000"><path d="M13.796 0a6.93 6.93 0 0 0-4.91 2.019L5.451 5.455l3.273 3.27 3.432-3.432a2.284 2.284 0 0 1 3.277 0 2.28 2.28 0 0 1 0 3.275L12 12.001l3.273 3.273 3.433-3.435c2.692-2.692 2.692-7.127 0-9.82A6.92 6.92 0 0 0 13.796 0m-5.07 8.728-3.433 3.434c-2.692 2.693-2.692 7.126 0 9.819A6.92 6.92 0 0 0 10.203 24a6.93 6.93 0 0 0 4.911-2.02l3.432-3.432-3.271-3.272-3.433 3.433a2.284 2.284 0 0 1-3.277 0 2.28 2.28 0 0 1 0-3.276L12 12z" /></svg>
    </g>
    <text x="446" y="84" font-family="Fira Code, SF Mono, Consolas, Courier New, monospace" font-size="13px" font-weight="bold" fill="#e0e0e0" text-transform="uppercase" dominant-baseline="middle" xml:space="preserve">LangChain</text>
    <text x="446" y="100" font-family="Fira Code, SF Mono, Consolas, Courier New, monospace" font-size="11px" fill="#666666" text-transform="uppercase" dominant-baseline="middle" xml:space="preserve">LLM Orchestration &amp; RAG</text>
  </g>
  <g>
    <rect x="738.5" y="60.5" width="332" height="58" fill="none" stroke="#1a1a1a" stroke-width="1"/>
    <rect x="738" y="60" width="3" height="58" fill="#FFB000" />
    <g transform="translate(756, 77)" fill="#FFB000">
      <svg width="24" height="24" viewBox="0 0 24 24" fill="#FFB000"><path d="M11.04 19.32Q12 21.51 12 24q0-2.49.93-4.68.96-2.19 2.58-3.81t3.81-2.55Q21.51 12 24 12q-2.49 0-4.68-.93a12.3 12.3 0 0 1-3.81-2.58 12.3 12.3 0 0 1-2.58-3.81Q12 2.49 12 0q0 2.49-.96 4.68-.93 2.19-2.55 3.81a12.3 12.3 0 0 1-3.81 2.58Q2.49 12 0 12q2.49 0 4.68.96 2.19.93 3.81 2.55t2.55 3.81" /></svg>
    </g>
    <text x="798" y="84" font-family="Fira Code, SF Mono, Consolas, Courier New, monospace" font-size="13px" font-weight="bold" fill="#e0e0e0" text-transform="uppercase" dominant-baseline="middle" xml:space="preserve">GenAI / Gemini</text>
    <text x="798" y="100" font-family="Fira Code, SF Mono, Consolas, Courier New, monospace" font-size="11px" fill="#666666" text-transform="uppercase" dominant-baseline="middle" xml:space="preserve">Agents &amp; Generative AI</text>
  </g>
  <g>
    <rect x="34.5" y="128.5" width="332" height="58" fill="none" stroke="#1a1a1a" stroke-width="1"/>
    <rect x="34" y="128" width="3" height="58" fill="#FFB000" />
    <g transform="translate(52, 145)" fill="#FFB000">
      <svg width="24" height="24" viewBox="0 0 24 24" fill="#FFB000"><path d="M0 0h24v24H0V0zm22.034 18.276c-.175-1.095-.888-2.015-3.003-2.873-.736-.345-1.554-.585-1.797-1.14-.091-.33-.105-.51-.046-.705.15-.646.915-.84 1.515-.66.39.12.75.42.976.9 1.034-.676 1.034-.676 1.755-1.125-.27-.42-.404-.601-.586-.78-.63-.705-1.469-1.065-2.834-1.034l-.705.089c-.676.165-1.32.525-1.71 1.005-1.14 1.291-.811 3.541.569 4.471 1.365 1.02 3.361 1.244 3.616 2.205.24 1.17-.87 1.545-1.966 1.41-.811-.18-1.26-.586-1.755-1.336l-1.83 1.051c.21.48.45.689.81 1.109 1.74 1.756 6.09 1.666 6.871-1.004.029-.09.24-.705.074-1.65l.046.067zm-8.983-7.245h-2.248c0 1.938-.009 3.864-.009 5.805 0 1.232.063 2.363-.138 2.711-.33.689-1.18.601-1.566.48-.396-.196-.597-.466-.83-.855-.063-.105-.11-.196-.127-.196l-1.825 1.125c.305.63.75 1.172 1.324 1.517.855.51 2.004.675 3.207.405.783-.226 1.458-.691 1.811-1.411.51-.93.402-2.07.397-3.346.012-2.054 0-4.109 0-6.179l.004-.056z" /></svg>
    </g>
    <text x="94" y="152" font-family="Fira Code, SF Mono, Consolas, Courier New, monospace" font-size="13px" font-weight="bold" fill="#e0e0e0" text-transform="uppercase" dominant-baseline="middle" xml:space="preserve">JavaScript</text>
    <text x="94" y="168" font-family="Fira Code, SF Mono, Consolas, Courier New, monospace" font-size="11px" fill="#666666" text-transform="uppercase" dominant-baseline="middle" xml:space="preserve">Fullstack Web &amp; Node.js</text>
  </g>
  <g>
    <rect x="386.5" y="128.5" width="332" height="58" fill="none" stroke="#1a1a1a" stroke-width="1"/>
    <rect x="386" y="128" width="3" height="58" fill="#FFB000" />
    <g transform="translate(404, 145)" fill="#FFB000">
      <svg width="24" height="24" viewBox="0 0 24 24" fill="#FFB000"><path d="M1.125 0C.502 0 0 .502 0 1.125v21.75C0 23.498.502 24 1.125 24h21.75c.623 0 1.125-.502 1.125-1.125V1.125C24 .502 23.498 0 22.875 0zm17.363 9.75c.612 0 1.154.037 1.627.111a6.38 6.38 0 0 1 1.306.34v2.458a3.95 3.95 0 0 0-.643-.361 5.093 5.093 0 0 0-.717-.26 5.453 5.453 0 0 0-1.426-.2c-.3 0-.573.028-.819.086a2.1 2.1 0 0 0-.623.242c-.17.104-.3.229-.393.374a.888.888 0 0 0-.14.49c0 .196.053.373.156.529.104.156.252.304.443.444s.423.276.696.41c.273.135.582.274.926.416.47.197.892.407 1.266.628.374.222.695.473.963.753.268.279.472.598.614.957.142.359.214.776.214 1.253 0 .657-.125 1.21-.373 1.656a3.033 3.033 0 0 1-1.012 1.085 4.38 4.38 0 0 1-1.487.596c-.566.12-1.163.18-1.79.18a9.916 9.916 0 0 1-1.84-.164 5.544 5.544 0 0 1-1.512-.493v-2.63a5.033 5.033 0 0 0 3.237 1.2c.333 0 .624-.03.872-.09.249-.06.456-.144.623-.25.166-.108.29-.234.373-.38a1.023 1.023 0 0 0-.074-1.089 2.12 2.12 0 0 0-.537-.5 5.597 5.597 0 0 0-.807-.444 27.72 27.72 0 0 0-1.007-.436c-.918-.383-1.602-.852-2.053-1.405-.45-.553-.676-1.222-.676-2.005 0-.614.123-1.141.369-1.582.246-.441.58-.804 1.004-1.089a4.494 4.494 0 0 1 1.47-.629 7.536 7.536 0 0 1 1.77-.201zm-15.113.188h9.563v2.166H9.506v9.646H6.789v-9.646H3.375z" /></svg>
    </g>
    <text x="446" y="152" font-family="Fira Code, SF Mono, Consolas, Courier New, monospace" font-size="13px" font-weight="bold" fill="#e0e0e0" text-transform="uppercase" dominant-baseline="middle" xml:space="preserve">TypeScript</text>
    <text x="446" y="168" font-family="Fira Code, SF Mono, Consolas, Courier New, monospace" font-size="11px" fill="#666666" text-transform="uppercase" dominant-baseline="middle" xml:space="preserve">Type-Safe Architecture</text>
  </g>
  <g>
    <rect x="738.5" y="128.5" width="332" height="58" fill="none" stroke="#1a1a1a" stroke-width="1"/>
    <rect x="738" y="128" width="3" height="58" fill="#FFB000" />
    <g transform="translate(756, 145)" fill="#FFB000">
      <svg width="24" height="24" viewBox="0 0 24 24" fill="#FFB000"><path d="M4.409 6.608L7.981.255l3.572 6.353H4.409zM8.411 0l3.569 6.348L15.552 0H8.411zm4.036 17.392l3.572 6.354 3.575-6.354h-7.147zm-.608-10.284h-7.43l3.715 6.605 3.715-6.605zm.428-.25h7.428L15.982.255l-3.715 6.603zM15.589 24l-3.569-6.349L8.448 24h7.141zm-3.856-6.858H4.306l3.712 6.603 3.715-6.603zm.428-.25h7.433l-3.718-6.605-3.715 6.605z" /></svg>
    </g>
    <text x="798" y="152" font-family="Fira Code, SF Mono, Consolas, Courier New, monospace" font-size="13px" font-weight="bold" fill="#e0e0e0" text-transform="uppercase" dominant-baseline="middle" xml:space="preserve">Solidity</text>
    <text x="798" y="168" font-family="Fira Code, SF Mono, Consolas, Courier New, monospace" font-size="11px" fill="#666666" text-transform="uppercase" dominant-baseline="middle" xml:space="preserve">EVM &amp; Smart Contracts</text>
  </g>
  <g>
    <rect x="34.5" y="196.5" width="332" height="58" fill="none" stroke="#1a1a1a" stroke-width="1"/>
    <rect x="34" y="196" width="3" height="58" fill="#FFB000" />
    <g transform="translate(52, 213)" fill="#FFB000">
      <svg width="24" height="24" viewBox="0 0 24 24" fill="#FFB000"><path d="M11.944 17.97L4.58 13.62 11.943 24l7.37-10.38-7.372 4.35h.003zM12.056 0L4.69 12.223l7.365 4.354 7.365-4.35L12.056 0z" /></svg>
    </g>
    <text x="94" y="220" font-family="Fira Code, SF Mono, Consolas, Courier New, monospace" font-size="13px" font-weight="bold" fill="#e0e0e0" text-transform="uppercase" dominant-baseline="middle" xml:space="preserve">Web3 / Ethereum</text>
    <text x="94" y="236" font-family="Fira Code, SF Mono, Consolas, Courier New, monospace" font-size="11px" fill="#666666" text-transform="uppercase" dominant-baseline="middle" xml:space="preserve">DeFi &amp; Blockchain</text>
  </g>
  <g>
    <rect x="386.5" y="196.5" width="332" height="58" fill="none" stroke="#1a1a1a" stroke-width="1"/>
    <rect x="386" y="196" width="3" height="58" fill="#FFB000" />
    <g transform="translate(404, 213)" fill="#FFB000">
      <svg width="24" height="24" viewBox="0 0 24 24" fill="#FFB000"><path d="M1.811 10.231c-.047 0-.058-.023-.035-.059l.246-.315c.023-.035.081-.058.128-.058h4.172c.046 0 .058.035.035.07l-.199.303c-.023.036-.082.07-.117.07zM.047 11.306c-.047 0-.059-.023-.035-.058l.245-.316c.023-.035.082-.058.129-.058h5.328c.047 0 .07.035.058.07l-.093.28c-.012.047-.058.07-.105.07zm2.828 1.075c-.047 0-.059-.035-.035-.07l.163-.292c.023-.035.07-.07.117-.07h2.337c.047 0 .07.035.07.082l-.023.28c0 .047-.047.082-.082.082zm12.129-2.36c-.736.187-1.239.327-1.963.514-.176.046-.187.058-.34-.117-.174-.199-.303-.327-.548-.444-.737-.362-1.45-.257-2.115.175-.795.514-1.204 1.274-1.192 2.22.011.935.654 1.706 1.577 1.835.795.105 1.46-.175 1.987-.77.105-.13.198-.27.315-.434H10.47c-.245 0-.304-.152-.222-.35.152-.362.432-.97.596-1.274a.315.315 0 01.292-.187h4.253c-.023.316-.023.631-.07.947a4.983 4.983 0 01-.958 2.29c-.841 1.11-1.94 1.8-3.33 1.986-1.145.152-2.209-.07-3.143-.77-.865-.655-1.356-1.52-1.484-2.595-.152-1.274.222-2.419.993-3.424.83-1.086 1.928-1.776 3.272-2.02 1.098-.2 2.15-.07 3.096.571.62.41 1.063.97 1.356 1.648.07.105.023.164-.117.2m3.868 6.461c-1.064-.024-2.034-.328-2.852-1.029a3.665 3.665 0 01-1.262-2.255c-.21-1.32.152-2.489.947-3.529.853-1.122 1.881-1.706 3.272-1.95 1.192-.21 2.314-.095 3.33.595.923.63 1.496 1.484 1.648 2.605.198 1.578-.257 2.863-1.344 3.962-.771.783-1.718 1.273-2.805 1.495-.315.06-.63.07-.934.106zm2.78-4.72c-.011-.153-.011-.27-.034-.387-.21-1.157-1.274-1.81-2.384-1.554-1.087.245-1.788.935-2.045 2.033-.21.912.234 1.835 1.075 2.21.643.28 1.285.244 1.905-.07.923-.48 1.425-1.228 1.484-2.233z" /></svg>
    </g>
    <text x="446" y="220" font-family="Fira Code, SF Mono, Consolas, Courier New, monospace" font-size="13px" font-weight="bold" fill="#e0e0e0" text-transform="uppercase" dominant-baseline="middle" xml:space="preserve">Golang</text>
    <text x="446" y="236" font-family="Fira Code, SF Mono, Consolas, Courier New, monospace" font-size="11px" fill="#666666" text-transform="uppercase" dominant-baseline="middle" xml:space="preserve">High-Throughput Services</text>
  </g>
  <g>
    <rect x="738.5" y="196.5" width="332" height="58" fill="none" stroke="#1a1a1a" stroke-width="1"/>
    <rect x="738" y="196" width="3" height="58" fill="#FFB000" />
    <g transform="translate(756, 213)" fill="#FFB000">
      <svg width="24" height="24" viewBox="0 0 24 24" fill="#FFB000"><path d="M13.983 11.078h2.119a.186.186 0 00.186-.185V9.006a.186.186 0 00-.186-.186h-2.119a.185.185 0 00-.185.185v1.888c0 .102.083.185.185.185m-2.954-5.43h2.118a.186.186 0 00.186-.186V3.574a.186.186 0 00-.186-.185h-2.118a.185.185 0 00-.185.185v1.888c0 .102.082.185.185.185m0 2.716h2.118a.187.187 0 00.186-.186V6.29a.186.186 0 00-.186-.185h-2.118a.185.185 0 00-.185.185v1.887c0 .102.082.185.185.186m-2.93 0h2.12a.186.186 0 00.184-.186V6.29a.185.185 0 00-.185-.185H8.1a.185.185 0 00-.185.185v1.887c0 .102.083.185.185.186m-2.964 0h2.119a.186.186 0 00.185-.186V6.29a.185.185 0 00-.185-.185H5.136a.186.186 0 00-.186.185v1.887c0 .102.084.185.186.186m5.893 2.715h2.118a.186.186 0 00.186-.185V9.006a.186.186 0 00-.186-.186h-2.118a.185.185 0 00-.185.185v1.888c0 .102.082.185.185.185m-2.93 0h2.12a.185.185 0 00.184-.185V9.006a.185.185 0 00-.184-.186h-2.12a.185.185 0 00-.184.185v1.888c0 .102.083.185.185.185m-2.964 0h2.119a.185.185 0 00.185-.185V9.006a.185.185 0 00-.184-.186h-2.12a.186.186 0 00-.186.186v1.887c0 .102.084.185.186.185m-2.92 0h2.12a.185.185 0 00.184-.185V9.006a.185.185 0 00-.184-.186h-2.12a.185.185 0 00-.184.185v1.888c0 .102.082.185.185.185M23.763 9.89c-.065-.051-.672-.51-1.954-.51-.338.001-.676.03-1.01.087-.248-1.7-1.653-2.53-1.716-2.566l-.344-.199-.226.327c-.284.438-.49.922-.612 1.43-.23.97-.09 1.882.403 2.661-.595.332-1.55.413-1.744.42H.751a.751.751 0 00-.75.748 11.376 11.376 0 00.692 4.062c.545 1.428 1.355 2.48 2.41 3.124 1.18.723 3.1 1.137 5.275 1.137.983.003 1.963-.086 2.93-.266a12.248 12.248 0 003.823-1.389c.98-.567 1.86-1.288 2.61-2.136 1.252-1.418 1.998-2.997 2.553-4.4h.221c1.372 0 2.215-.549 2.68-1.009.309-.293.55-.65.707-1.046l.098-.288Z" /></svg>
    </g>
    <text x="798" y="220" font-family="Fira Code, SF Mono, Consolas, Courier New, monospace" font-size="13px" font-weight="bold" fill="#e0e0e0" text-transform="uppercase" dominant-baseline="middle" xml:space="preserve">Docker</text>
    <text x="798" y="236" font-family="Fira Code, SF Mono, Consolas, Courier New, monospace" font-size="11px" fill="#666666" text-transform="uppercase" dominant-baseline="middle" xml:space="preserve">DevOps, GCP &amp; Containers</text>
  </g>
</svg>